# xmcd CD database file
#
# Track frame offsets:
#	150
#	13269
#	27728
#	42135
#	57655
#	72516
#	87435
#	102029
#	116288
#	130671
#	146471
#	161321
#	175976
#	190865
#	203886
#	218157
#	232905
#	249744
#	263436
#	277848
#	291071
#	305278
#
# Disc length: 4250 seconds
#
# Revision: 1
# Processed by: cddbd v1.5.2PL0 Copyright (c) Steve Scherf et al.
# Submitted via: CDex 1.70beta2
#
DISCID=36109816
DTITLE=Bessie Smith - The Ultimate Jazz Archive Set 10
DYEAR=2004
DGENRE=Blues
TTITLE0=I'm Going Back To My Used To Be
TTITLE1=My Sweet Went Away
TTITLE2=Whoa, Tillie, Take Your Time
TTITLE3=Any Woman's Blues
TTITLE4=Chicago Bound Blues
TTITLE5=Mistreating Daddy
TTITLE6=Frosty Morning Blues
TTITLE7=Easy Come Easy Go Blues
TTITLE8=Eavesdropper's Blues
TTITLE9=Haunted House Blues
TTITLE10=Sorrowful Blues
TTITLE11=Rocking Chair Blues
TTITLE12=Ticket Agent, Ease Your Window Down
TTITLE13=Boweavil Blues
TTITLE14=Hateful Blues
TTITLE15=Pinchbacks - Take 'Em Away
TTITLE16=Nashvile Woman's Blues
TTITLE17=Sweet Mistreater
TTITLE18=Mean Old Bedbug Bues
TTITLE19=Blue Spirit Blues
TTITLE20=Black Mountain Blues
TTITLE21=The House Blues
EXTD=YEAR: 2004
EXTT0=
EXTT1=
EXTT2=
EXTT3=
EXTT4=
EXTT5=
EXTT6=
EXTT7=
EXTT8=
EXTT9=
EXTT10=
EXTT11=
EXTT12=
EXTT13=
EXTT14=
EXTT15=
EXTT16=
EXTT17=
EXTT18=
EXTT19=
EXTT20=
EXTT21=
PLAYORDER=
